<?xml version="1.0" encoding="utf-8"?>
<!-- Generator: Adobe Illustrator 24.2.1, SVG Export Plug-In . SVG Version: 6.00 Build 0)  -->
<svg version="1.1" id="Capa_1" xmlns="http://www.w3.org/2000/svg" xmlns:xlink="http://www.w3.org/1999/xlink" x="0px" y="0px"
	 viewBox="0 0 512 512" style="enable-background:new 0 0 512 512;" xml:space="preserve">
<style type="text/css">
	.st0{fill:#FFFFFF;}
</style>
<g>
	<g>
		<path class="st0" d="M506,19.5c-4.4-3.6-10.6-4.5-16-2.4l-480,192c-5.9,2.4-9.9,8-10,14.4c-0.2,6.4,3.5,12.3,9.3,14.9L160,308.1
			L496,32L224,337.6V496l113.5-106l87.7,40.5c2.1,1,4.4,1.5,6.7,1.5c2.6,0,5.2-0.6,7.5-1.9c4.4-2.3,7.5-6.6,8.3-11.5l64-384
			C512.7,28.9,510.5,23.1,506,19.5z"/>
	</g>
</g>
</svg>
