<?xml version="1.0" encoding="utf-8"?>
<!-- Generator: Adobe Illustrator 24.2.1, SVG Export Plug-In . SVG Version: 6.00 Build 0)  -->
<svg version="1.1" id="Layer_1" xmlns="http://www.w3.org/2000/svg" xmlns:xlink="http://www.w3.org/1999/xlink" x="0px" y="0px"
	 viewBox="0 0 512 512" style="enable-background:new 0 0 512 512;" xml:space="preserve">
<style type="text/css">
	.st0{fill:#FFFFFF;}
</style>
<path class="st0" d="M507.6,371.1c-7.2-7.2-14.9-13.8-23.1-19.6c-17.3,20-37.6,36.8-60.6,50c-35.5,20.5-75.9,31.5-116.9,31.7
	c21.8,8.8,45.2,13.4,69.4,13.4c49.5,0,96.1-19.3,131.1-54.3c2.8-2.8,4.4-6.6,4.4-10.6C512,377.7,510.4,373.9,507.6,371.1
	L507.6,371.1z"/>
<path class="st0" d="M27.4,351.4c-8.1,5.9-15.8,12.4-23.1,19.6c-2.8,2.8-4.4,6.6-4.4,10.6s1.6,7.8,4.4,10.6
	c35,35,81.6,54.3,131.1,54.3c24.2,0,47.6-4.6,69.4-13.4c-41-0.3-81.4-11.2-116.9-31.7C65.1,388.3,44.8,371.4,27.4,351.4L27.4,351.4z
	"/>
<path class="st0" d="M103,375.5c24.9,14.4,53.9,24.1,84.8,26.9c-53.4-29.6-82.3-70.6-95.9-94.1c-14.9-25.9-25-53.9-30.1-83.4
	c-14.9,0.6-29.8,2.9-44.2,6.7c-6.6,1.6-11.5,7.5-11.5,14.6c0,1.3,0.2,2.6,0.5,3.9C22,307.1,59.4,350.3,103,375.5L103,375.5z"/>
<path class="st0" d="M324.1,402.4c30.9-2.8,59.9-12.5,84.8-26.9c43.6-25.2,81-68.4,96.3-125.5c0.3-1.3,0.5-2.6,0.5-3.9
	c0-7.1-4.9-13-11.5-14.6c-14.5-3.8-29.3-6.1-44.2-6.7c-5,29.5-15.1,57.5-30.1,83.4C406.4,331.8,377.6,372.8,324.1,402.4L324.1,402.4
	z"/>
<path class="st0" d="M187.3,366.9c-15.2-24.5-38.7-71.5-38.7-135.9c0-32.6,6-64.4,17.9-94.5c-16.4-9.4-34-16.6-52.3-21.5
	c-8-2.1-16.2,2.6-18.4,10.6c-16.4,61.1-4.8,121.1,22.1,167.6C134.3,321.5,157.7,347.3,187.3,366.9z"/>
<path class="st0" d="M324.7,367c29.6-19.6,53-45.5,69.3-73.7c26.9-46.6,38.4-106.6,22.1-167.6c-2.1-8-10.4-12.7-18.4-10.6
	c-18.3,4.9-35.9,12.2-52.3,21.5c11.9,30.1,17.9,61.9,17.9,94.5C363.4,295.5,339.8,342.5,324.7,367L324.7,367z"/>
<path class="st0" d="M266.6,69.8c-2.8-2.8-6.6-4.4-10.6-4.4s-7.8,1.6-10.6,4.4c-39.3,39.3-66.8,96-66.8,161.2
	c0,65.3,27.5,122,66.8,161.2c2.8,2.8,6.6,4.4,10.6,4.4s7.8-1.6,10.6-4.4c39.2-39.2,66.8-96,66.8-161.2
	C333.4,165.8,305.9,109.1,266.6,69.8L266.6,69.8z"/>
</svg>
