<?xml version="1.0" encoding="utf-8"?>
<!-- Generator: Adobe Illustrator 24.2.1, SVG Export Plug-In . SVG Version: 6.00 Build 0)  -->
<svg version="1.1" id="Layer_1" xmlns="http://www.w3.org/2000/svg" xmlns:xlink="http://www.w3.org/1999/xlink" x="0px" y="0px"
	 viewBox="0 0 512 512" style="enable-background:new 0 0 512 512;" xml:space="preserve">
<style type="text/css">
	.st0{fill:#FFFFFF;}
</style>
<path class="st0" d="M510,494.9c-1.9-1.9-4.4-2.9-7.1-2.9c-2.6,0-5.2,1.1-7.1,2.9c-1.9,1.9-2.9,4.4-2.9,7.1s1.1,5.2,2.9,7.1
	c1.9,1.9,4.4,2.9,7.1,2.9c2.6,0,5.2-1.1,7.1-2.9s2.9-4.4,2.9-7.1S511.9,496.8,510,494.9z"/>
<path class="st0" d="M466,492h-65.5c1.4-2.2,2.6-4.5,3.6-7c8.8-21.4-0.7-45.9-21.5-55.8l-59.9-28.5c-7.5-3.6-12.3-11.2-12.3-19.5
	l0.1-54.9c0-9.8,4.1-19.5,11-26.4l33.9-33.5c16.4-16.1,25.8-38.6,25.8-61.6c0-26.8-12.7-52.4-34-68.7c0,0-44.4-33.9-68.8-52.4
	c-6-4.6-13.9-5.3-20.7-2c-0.3,0.2-0.6,0.3-0.9,0.5c-0.3-0.2-0.6-0.3-0.9-0.5c-6.7-3.3-14.7-2.6-20.7,2
	c-24.4,18.5-68.8,52.4-68.8,52.4c-21.3,16.2-34,41.9-34,68.7c0,23,9.4,45.4,25.7,61.5l34.1,33.8c7,6.9,11,16.6,11,26.4l0.1,54.7
	c0,8.3-4.8,15.9-12.3,19.5l-60.5,28.8c-20.5,9.8-29.9,34-21.2,55c1.1,2.7,2.5,5.2,4,7.6H11c-5.5,0-10,4.5-10,10s4.5,10,10,10h455
	c5.5,0,10-4.5,10-10S471.5,492,466,492z M314.2,224.4l-10.8,10.7c0.5-2.6,0.7-5.3,0.7-8.1v-6.3c0-26-21.1-47.1-47.1-47.1
	s-47.1,21.1-47.1,47.1v6.3c0,2.8,0.3,5.5,0.7,8.1l-10.9-10.7c-5.2-5.2-8.2-12.3-8.2-19.7c0-8.5,4.1-16.7,10.8-21.9l44.1-33.7
	c4.1-3.1,7.6-6.8,10.6-10.9c3,4.1,6.5,7.8,10.6,10.9l44.1,33.7c6.8,5.2,10.8,13.4,10.8,21.9C322.5,212.1,319.5,219.2,314.2,224.4z
	 M284.1,227c0,15-12.2,27.1-27.1,27.1s-27.1-12.2-27.1-27.1v-6.3c0-15,12.2-27.1,27.1-27.1s27.1,12.2,27.1,27.1V227z M139.4,447.5
	l60.5-28.8c14.4-6.9,23.7-21.6,23.7-37.6l-0.1-54.7c0-15.1-6.2-29.9-16.9-40.6l-34.1-33.8c-12.6-12.4-19.8-29.6-19.8-47.3
	c0-20.6,9.8-40.3,26.1-52.8c0,0,43.8-33.4,68.3-52c0.1,1.2,0.4,2.4,0.9,3.5c-0.6,1.2-0.9,2.6-0.9,4.1c0,10-4.8,19.7-12.7,25.8
	l-44.1,33.7c-11.7,8.9-18.7,23.1-18.7,37.8c0,12.7,5.2,25,14.2,33.9l14.6,14.4c15.2,15,35.3,23.2,56.7,23.2
	c21.3,0,41.5-8.3,56.7-23.2l14.6-14.4c9-8.9,14.2-21.2,14.2-33.9c0-14.7-7-28.9-18.7-37.8l-44.1-33.7c-8-6.1-12.7-15.7-12.7-25.8
	c0-1.5-0.3-2.8-0.9-4.1c0.5-1.1,0.8-2.2,0.9-3.5c24.5,18.6,68.3,52,68.2,52c16.3,12.5,26.1,32.2,26.1,52.8
	c0,17.7-7.2,34.9-19.8,47.3l-33.9,33.6c-10.8,10.6-16.9,25.4-17,40.5l-0.1,54.9c0,16,9.3,30.7,23.7,37.6l59.9,28.5
	c11.3,5.4,16.4,18.6,11.6,30.2c-4.9,11.8-18,17.6-30,13.1l-76.8-28.6h27.6c5.5,0,10-4.5,10-10c0-5.5-4.5-10-10-10h-32.7
	c-1.3,0-2.6,0.3-3.8,0.8L158,489.2c-5.7,2.4-11.9,2.4-17.6,0c-5.7-2.4-10.1-6.8-12.4-12.4C123.4,465.6,128.4,452.7,139.4,447.5z
	 M250.2,472.5l52.3,19.5h-99.1L250.2,472.5z"/>
<path class="st0" d="M257,67c5.5,0,10-4.5,10-10V10c0-5.5-4.5-10-10-10s-10,4.5-10,10v47C247,62.5,251.5,67,257,67z"/>
<path class="st0" d="M133.1,93.4c2,2,4.5,2.9,7.1,2.9s5.1-1,7.1-2.9c3.9-3.9,3.9-10.2,0-14.1l-36.7-36.7c-3.9-3.9-10.2-3.9-14.1,0
	c-3.9,3.9-3.9,10.2,0,14.1L133.1,93.4z"/>
<path class="st0" d="M78.8,35c2.6,0,5.2-1.1,7.1-2.9c1.9-1.9,2.9-4.4,2.9-7.1c0-2.6-1.1-5.2-2.9-7.1C84,16,81.4,15,78.8,15
	c-2.6,0-5.2,1.1-7.1,2.9s-2.9,4.4-2.9,7.1c0,2.6,1.1,5.2,2.9,7.1C73.6,33.9,76.2,35,78.8,35z"/>
<path class="st0" d="M370.1,100.1c2.6,0,5.1-1,7.1-2.9l53.4-53.4c3.9-3.9,3.9-10.2,0-14.1s-10.2-3.9-14.1,0L363,83
	c-3.9,3.9-3.9,10.2,0,14.1C365,99.1,367.5,100.1,370.1,100.1z"/>
<path class="st0" d="M32.4,213.2h65.2c5.5,0,10-4.5,10-10s-4.5-10-10-10H32.4c-5.5,0-10,4.5-10,10S26.9,213.2,32.4,213.2z"/>
<path class="st0" d="M481.6,193.2h-65.2c-5.5,0-10,4.5-10,10s4.5,10,10,10h65.2c5.5,0,10-4.5,10-10S487.1,193.2,481.6,193.2z"/>
</svg>
