<?xml version="1.0" encoding="utf-8"?>
<!-- Generator: Adobe Illustrator 24.2.1, SVG Export Plug-In . SVG Version: 6.00 Build 0)  -->
<svg version="1.1" id="Layer_1" xmlns="http://www.w3.org/2000/svg" xmlns:xlink="http://www.w3.org/1999/xlink" x="0px" y="0px"
	 viewBox="0 0 512 512" style="enable-background:new 0 0 512 512;" xml:space="preserve">
<style type="text/css">
	.st0{fill:#FFFFFF;}
</style>
<path class="st0" d="M455.9,265.6c-4.2-7-11.1-11.9-19-13.7c-7.9-1.7-16.3,0-23,4.6L368.7,288L325,257.2
	c-9.4-6.6-20.2-10.4-31.6-11.1c6.3-8,10.1-18.1,10.1-29.1v-6.3c0-26-21.1-47.1-47.1-47.1c-26,0-47.1,21.1-47.1,47.1v6.3
	c0,11,3.8,21.1,10.1,29.2c-11.3,0.7-22,4.5-31.3,11.1L144.4,288l-45.2-31.4c-6.7-4.6-15-6.3-23-4.6s-14.9,6.7-19,13.7
	c-7.7,12.9-4.5,29.5,7.6,38.6l54.6,41c8,6,17.6,9.1,27.2,9.1c7.8,0,15.6-2,22.6-6.1l33.6-19.3l0.1,52.1c0,8.3-4.8,15.9-12.3,19.5
	l-60.5,28.8c-20.5,9.8-29.9,34-21.2,55c4.4,10.6,12.6,18.9,23.2,23.3c5.3,2.2,10.9,3.3,16.4,3.3c5.6,0,11.2-1.1,16.5-3.3l84.5-35.2
	l98.5,36.7c5.1,1.9,10.2,2.8,15.3,2.8c17.1,0,33.2-10.2,40.1-27c8.8-21.4-0.7-45.9-21.5-55.8l-59.9-28.5
	c-7.5-3.6-12.3-11.2-12.3-19.5l0.1-52.2l33.8,19.4c7,4.1,14.8,6.1,22.6,6.1c9.6,0,19.2-3.1,27.2-9.1l54.6-41
	C460.4,295.2,463.6,278.6,455.9,265.6z M229.3,210.7c0-15,12.2-27.1,27.1-27.1c15,0,27.1,12.2,27.1,27.1v6.3
	c0,15-12.2,27.1-27.1,27.1c-15,0-27.1-12.2-27.1-27.1V210.7z M436.3,288.2l-54.6,41c-8.1,6.1-19.1,6.8-27.9,1.7L311,306.3
	c-0.3-0.2-0.6-0.3-0.9-0.5l0-9.3c0-5.5-4.5-10-10-10c0,0,0,0,0,0c-5.5,0-10,4.5-10,10l-0.2,84.5c0,16,9.3,30.7,23.7,37.6l59.9,28.5
	c11.3,5.4,16.4,18.6,11.6,30.2c-4.9,11.8-18,17.6-30,13.1l-76.8-28.6h27.6c5.5,0,10-4.5,10-10c0-5.5-4.5-10-10-10h-32.7
	c-1.3,0-2.6,0.3-3.8,0.8l-111.9,46.6c-5.7,2.4-11.9,2.4-17.6,0c-5.7-2.3-10.1-6.8-12.4-12.4c-4.6-11.2,0.4-24.1,11.3-29.4l60.5-28.8
	c14.4-6.9,23.7-21.6,23.7-37.6l-0.1-84.3c0-5.5-4.5-10-10-10c0,0,0,0,0,0c-5.5,0-10,4.5-10,10l0,9.2c-0.3,0.1-0.5,0.2-0.7,0.4
	L159.3,331c-8.8,5.1-19.8,4.4-27.9-1.7l-54.6-41c-3.9-2.9-4.9-8.2-2.4-12.3c1.4-2.3,3.5-3.8,6.1-4.4s5.2,0,7.3,1.5l51,35.4
	c3.5,2.4,8,2.4,11.5,0l49.4-34.9c7-4.9,15.2-7.5,23.7-7.5h66.4c8.5,0,16.7,2.6,23.7,7.5l49.4,34.9c3.4,2.4,8,2.4,11.5,0l51-35.4
	c2.2-1.5,4.8-2,7.3-1.5s4.7,2.1,6.1,4.4C441.2,280,440.1,285.3,436.3,288.2z"/>
<path class="st0" d="M187.1,105.1c17.7,2.7,30.6,18.8,29.3,36.7c-0.3,4.1,1.9,8,5.6,9.7c3.7,1.8,8.1,1.1,11.1-1.7
	c13.1-12.2,33.8-12.2,46.9,0c1.9,1.7,4.3,2.7,6.8,2.7c1.5,0,3-0.3,4.3-1c3.7-1.8,5.9-5.6,5.6-9.7c-1.3-17.9,11.5-34,29.2-36.7
	c4.1-0.6,7.3-3.7,8.2-7.7c0.9-4-0.7-8.2-4.1-10.5c-14.8-10.1-19.4-30.2-10.4-45.7c2-3.6,1.7-8-0.9-11.2c-2.6-3.2-6.8-4.5-10.7-3.3
	C291,31.9,272.4,23,265.8,6.3c-1.5-3.8-5.2-6.3-9.3-6.3s-7.8,2.5-9.3,6.3C240.7,23,222.1,31.9,205,26.7c-3.9-1.2-8.2,0.1-10.7,3.3
	s-2.9,7.7-0.9,11.2c8.9,15.5,4.3,35.6-10.4,45.7c-3.4,2.3-5,6.5-4.1,10.5C179.7,101.4,183,104.5,187.1,105.1z M216.9,48.1
	c15.2-0.6,29.7-7.5,39.6-19.1c9.9,11.5,24.4,18.5,39.6,19.1c-2.8,14.9,0.8,30.6,9.8,42.8c-13.4,7.1-23.4,19.7-27.4,34.4
	c-7-3-14.5-4.6-22-4.6c-7.5,0-15,1.5-22,4.6c-3.9-14.7-13.9-27.2-27.4-34.4C216.2,78.7,219.8,63.1,216.9,48.1z"/>
<path class="st0" d="M256.5,111.2c16.4,0,29.8-13.3,29.8-29.8s-13.3-29.7-29.8-29.7s-29.8,13.3-29.8,29.7S240.1,111.2,256.5,111.2z
	 M256.5,71.7c5.4,0,9.8,4.4,9.8,9.8s-4.4,9.8-9.8,9.8s-9.8-4.4-9.8-9.8S251.2,71.7,256.5,71.7z"/>
<path class="st0" d="M384.4,165c5.5,0,10-4.5,10-10v-35c0-5.5-4.5-10-10-10c-5.5,0-10,4.5-10,10v35C374.4,160.5,378.9,165,384.4,165
	z"/>
<path class="st0" d="M384.4,91.5c5.5,0,10-4.5,10-10v-35c0-5.5-4.5-10-10-10c-5.5,0-10,4.5-10,10v35C374.4,87,378.9,91.5,384.4,91.5
	z"/>
<path class="st0" d="M384.4,207c2.6,0,5.2-1.1,7.1-2.9s2.9-4.4,2.9-7.1c0-2.6-1.1-5.2-2.9-7.1c-1.9-1.9-4.4-2.9-7.1-2.9
	c-2.6,0-5.2,1.1-7.1,2.9c-1.9,1.9-2.9,4.4-2.9,7.1c0,2.6,1.1,5.2,2.9,7.1S381.8,207,384.4,207z"/>
<path class="st0" d="M128.4,194c5.5,0,10-4.5,10-10v-35c0-5.5-4.5-10-10-10c-5.5,0-10,4.5-10,10v35C118.4,189.5,122.9,194,128.4,194
	z"/>
<path class="st0" d="M128.4,236c2.6,0,5.2-1.1,7.1-2.9s2.9-4.4,2.9-7.1s-1.1-5.2-2.9-7.1c-1.9-1.9-4.4-2.9-7.1-2.9
	c-2.6,0-5.2,1.1-7.1,2.9s-2.9,4.4-2.9,7.1s1.1,5.2,2.9,7.1C123.2,234.9,125.8,236,128.4,236z"/>
</svg>
