<?xml version="1.0" encoding="utf-8"?>
<!-- Generator: Adobe Illustrator 24.2.1, SVG Export Plug-In . SVG Version: 6.00 Build 0)  -->
<svg version="1.1" id="Layer_1" xmlns="http://www.w3.org/2000/svg" xmlns:xlink="http://www.w3.org/1999/xlink" x="0px" y="0px"
	 viewBox="0 0 512 512" style="enable-background:new 0 0 512 512;" xml:space="preserve">
<style type="text/css">
	.st0{fill:#FFFFFF;}
</style>
<g>
	<path class="st0" d="M511.4,248c-3.2-11.4-10.5-21.3-20.8-27.7c-14-8.7-31.5-9.5-46.3-2.1l-3.8,1.9l0,15.5
		c0,24.4-5.8,48.3-16.8,69.9l80-40C510.1,262.3,513.4,254.9,511.4,248z"/>
	<path class="st0" d="M391.3,109.5c-21.5,6.3-38.5,22.8-45.6,43.9l13.3,13.3c8.5,8.5,13.2,19.8,13.2,31.8v126.7
		c24.2-23,38.4-55.2,38.4-89.6l0-111.6C410.5,113.9,400.9,106.7,391.3,109.5L391.3,109.5z"/>
	<path class="st0" d="M242.5,92.7c-2.7-2.7-6-4.1-9.4-4.3c10.8,29.2,7.6,61.9-8.4,88.4c1.8,2.3,3.7,4.4,5.7,6.5l43.2,43.2v68.4
		l-85.5,34.2l-40.3-80.6c-6.6-13.2-4-29.1,6.4-39.5l33.9-33.9c23.7-23.7,27.6-59.6,11.7-87.3c-4.9-8.6-16.7-10.3-23.7-3.3
		l-93.6,93.5c-31,31-48.4,73-48.4,116.8v0H15c-8.3,0-15,6.7-15,15v106.9c0,8.3,6.7,15,15,15h149c4.7,0,9.3-1.1,13.4-3.2l156.4-78.2
		c5.1-2.5,8.3-7.7,8.3-13.4V198.5c0-4-1.6-7.8-4.4-10.6L242.5,92.7z"/>
</g>
</svg>
