<?xml version="1.0" encoding="utf-8"?>
<!-- Generator: Adobe Illustrator 24.2.1, SVG Export Plug-In . SVG Version: 6.00 Build 0)  -->
<svg version="1.1" id="Capa_1" xmlns="http://www.w3.org/2000/svg" xmlns:xlink="http://www.w3.org/1999/xlink" x="0px" y="0px"
	 viewBox="0 0 512 512" style="enable-background:new 0 0 512 512;" xml:space="preserve">
<style type="text/css">
	.st0{fill:#FFFFFF;}
</style>
<g>
	<path class="st0" d="M256,67.4c4.3-2.5,8.7-4.7,12.9-7c11.5-6,22.2-11.6,31.2-19.8c-2.6-2.3-5.2-4.5-7.7-6.7
		C278.8,22.4,271,15.1,271,0h-30c0,15.1-7.8,22.4-21.5,34.1c-2.5,2.1-5.1,4.3-7.7,6.7c9,8.1,19.7,13.7,31.2,19.8
		C247.3,62.7,251.7,65,256,67.4z"/>
	<path class="st0" d="M256,444.6c-4.3,2.5-8.7,4.7-12.9,7c-11.5,6-22.2,11.6-31.2,19.8c2.6,2.3,5.2,4.5,7.7,6.7
		c13.7,11.7,21.5,19,21.5,34.1h30c0-15.1,7.8-22.4,21.5-34.1c2.5-2.1,5.1-4.3,7.7-6.7c-9-8.1-19.7-13.7-31.2-19.8
		C264.7,449.3,260.3,447,256,444.6L256,444.6z"/>
	<path class="st0" d="M96,97.9c-0.8,3.2-1.6,6.5-2.3,9.9c12.1,1.3,24-0.5,36.9-2.4c4.7-0.7,9.6-1.4,14.6-2c2.1-4.5,4.2-8.9,6.4-13.2
		c5.8-11.6,11.1-22.5,13.7-34.3c-3.5-0.4-6.9-0.6-10.1-0.9c-18-1.4-28.6-2.7-37.4-14.9L93.4,57.7C102.3,69.9,100.3,80.4,96,97.9
		L96,97.9z"/>
	<path class="st0" d="M416,414.1c0.8-3.2,1.6-6.5,2.3-9.9c-12.1-1.3-24,0.5-36.9,2.4c-4.7,0.7-9.6,1.4-14.5,2
		c-2.1,4.5-4.2,8.9-6.4,13.2c-5.8,11.6-11.1,22.5-13.7,34.4c3.5,0.4,6.9,0.6,10.1,0.9c18,1.4,28.6,2.7,37.4,14.9l24.3-17.6
		C409.8,442.1,411.7,431.6,416,414.1L416,414.1z"/>
	<path class="st0" d="M33.6,222.1c1.2,3,2.5,6.2,4,9.3c10.5-6.1,19.2-14.5,28.4-23.6c3.4-3.4,6.9-6.8,10.6-10.1
		c-1-4.9-1.8-9.7-2.6-14.4c-2.2-12.8-4.2-24.7-9.1-35.8c-3,1.7-5.9,3.5-8.7,5.2c-15.3,9.5-24.7,14.6-39,9.9l-9.3,28.5
		C22.2,195.8,26.8,205.5,33.6,222.1z"/>
	<path class="st0" d="M478.4,289.9c-1.2-3-2.5-6.2-4-9.3c-10.5,6.1-19.2,14.5-28.4,23.6c-3.4,3.4-6.9,6.8-10.6,10.1
		c1,4.9,1.8,9.7,2.6,14.4c2.2,12.8,4.2,24.7,9.1,35.8c3-1.7,5.9-3.5,8.7-5.2c15.3-9.5,24.7-14.6,39-9.9l9.3-28.5
		C489.8,316.2,485.2,306.5,478.4,289.9L478.4,289.9z"/>
	<path class="st0" d="M37.6,280.5c-1.4,3.2-2.7,6.3-4,9.3c-6.8,16.7-11.4,26.3-25.7,31l9.3,28.5c14.3-4.7,23.7,0.5,39,9.9
		c2.8,1.7,5.7,3.5,8.7,5.2c4.9-11.1,7-23,9.1-35.8c0.8-4.7,1.6-9.6,2.6-14.4c-3.7-3.4-7.2-6.8-10.6-10.1
		C56.8,295,48.1,286.6,37.6,280.5L37.6,280.5z"/>
	<path class="st0" d="M474.4,231.5c1.4-3.2,2.7-6.3,4-9.3c6.8-16.7,11.4-26.3,25.7-31l-9.3-28.5c-14.3,4.7-23.7-0.5-39-9.9
		c-2.8-1.7-5.7-3.5-8.7-5.2c-4.9,11.1-7,23-9.1,35.8c-0.8,4.7-1.6,9.6-2.6,14.4c3.7,3.4,7.2,6.8,10.6,10.1
		C455.2,217,463.9,225.4,474.4,231.5z"/>
	<path class="st0" d="M145.2,408.6c-5-0.6-9.8-1.3-14.5-2c-12.8-1.9-24.8-3.6-36.9-2.4c0.7,3.4,1.5,6.7,2.3,9.9
		c4.3,17.5,6.2,28-2.6,40.2l24.3,17.6c8.9-12.2,19.5-13.6,37.4-14.9c3.2-0.2,6.6-0.5,10.1-0.9c-2.5-11.9-7.9-22.7-13.7-34.4
		C149.4,417.5,147.2,413.1,145.2,408.6L145.2,408.6z"/>
	<path class="st0" d="M366.8,103.4c5,0.6,9.8,1.3,14.5,2c12.8,1.9,24.8,3.6,36.9,2.4c-0.7-3.4-1.5-6.7-2.3-9.9
		c-4.3-17.5-6.2-28,2.6-40.2l-24.3-17.6c-8.9,12.2-19.5,13.6-37.4,14.9c-3.2,0.2-6.6,0.5-10.1,0.9c2.5,11.9,7.9,22.7,13.7,34.3
		C362.6,94.5,364.8,98.9,366.8,103.4L366.8,103.4z"/>
	<path class="st0" d="M271.6,93.1c2.1,14,9.9,22,20.1,32.5c1.6,1.7,3.3,3.4,5,5.2c2.4-0.5,4.8-0.9,7.1-1.2
		c14.4-2.4,25.4-4.3,35.4-14.4c-1.7-3.8-3.6-7.6-5.6-11.5c-5.8-11.8-12-24.2-15.5-38.6c-11.2,9.5-23.6,16-35.2,22.1
		C279,89.1,275.2,91.1,271.6,93.1z"/>
	<path class="st0" d="M240.4,418.9c-2.1-14-9.9-22-20.1-32.5c-1.6-1.7-3.3-3.4-5-5.2c-2.4,0.5-4.8,0.9-7.1,1.2
		c-14.4,2.4-25.4,4.3-35.4,14.4c1.7,3.8,3.6,7.6,5.6,11.5c5.8,11.8,12,24.2,15.5,38.6c11.2-9.5,23.6-16,35.2-22.1
		C233,422.9,236.8,420.9,240.4,418.9L240.4,418.9z"/>
	<path class="st0" d="M215.3,130.7c1.7-1.8,3.4-3.5,5-5.2c10.2-10.4,18-18.4,20.1-32.5c-3.6-2-7.4-4-11.3-6.1
		c-11.6-6.1-24-12.6-35.2-22.1c-3.5,14.3-9.7,26.8-15.5,38.6c-1.9,3.9-3.8,7.7-5.6,11.5c10,10.1,21,12,35.4,14.4
		C210.5,129.9,212.9,130.3,215.3,130.7L215.3,130.7z"/>
	<path class="st0" d="M296.7,381.3c-1.7,1.8-3.4,3.5-5,5.2c-10.2,10.4-18,18.4-20.1,32.5c3.6,2,7.4,4,11.3,6.1
		c11.6,6.1,24,12.6,35.2,22.1c3.5-14.3,9.7-26.8,15.5-38.6c1.9-3.9,3.8-7.7,5.6-11.5c-10-10.1-21-12-35.4-14.4
		C301.5,382.1,299.1,381.7,296.7,381.3L296.7,381.3z"/>
	<path class="st0" d="M135,135.1c-13,1.9-26.8,3.9-41.5,2.8c5.6,13.6,7.9,27.4,10.1,40.3c0.7,4.3,1.5,8.5,2.3,12.6
		c14,2.3,24-2.6,37.1-9.1c2.1-1,4.2-2.1,6.4-3.1c0.3-2.4,0.7-4.8,1-7.1c2.1-14.4,3.7-25.5-2.8-38.1
		C143.5,133.9,139.3,134.5,135,135.1z"/>
	<path class="st0" d="M377,376.9c13-1.9,26.8-3.9,41.5-2.8c-5.6-13.6-7.9-27.4-10.1-40.3c-0.7-4.3-1.5-8.5-2.3-12.6
		c-14-2.3-24,2.6-37.1,9.1c-2.1,1-4.2,2.1-6.4,3.1c-0.3,2.4-0.7,4.8-1,7.1c-2.1,14.4-3.7,25.5,2.8,38.1
		C368.5,378.1,372.7,377.5,377,376.9L377,376.9z"/>
	<path class="st0" d="M120.9,262.3c1.1-2.1,2.2-4.2,3.4-6.3c-1.2-2.2-2.3-4.3-3.4-6.3c-6.8-12.9-12-22.8-24.6-29.2
		c-3.1,2.8-6.1,5.8-9.2,8.8c-9.4,9.2-19.3,18.9-31.9,26.7c12.5,7.8,22.5,17.5,31.9,26.7c3.1,3.1,6.2,6,9.2,8.8
		C108.9,285.1,114.1,275.3,120.9,262.3L120.9,262.3z"/>
	<path class="st0" d="M425,229.3c-3.1-3.1-6.2-6-9.2-8.8c-12.7,6.4-17.9,16.3-24.6,29.2c-1.1,2.1-2.2,4.2-3.4,6.3
		c1.2,2.2,2.3,4.3,3.4,6.3c6.8,12.9,12,22.8,24.6,29.2c3.1-2.8,6.1-5.8,9.2-8.8c9.4-9.2,19.4-18.9,31.9-26.7
		C444.3,248.2,434.4,238.5,425,229.3L425,229.3z"/>
	<path class="st0" d="M143,330.3c-13.1-6.5-23.1-11.4-37.1-9.1c-0.8,4.1-1.5,8.3-2.3,12.6c-2.2,12.9-4.5,26.7-10.1,40.3
		c14.7-1.1,28.5,0.9,41.5,2.8c4.3,0.6,8.5,1.2,12.7,1.7c6.5-12.6,4.9-23.7,2.8-38.1c-0.3-2.3-0.7-4.7-1-7.1
		C147.2,332.4,145.1,331.3,143,330.3L143,330.3z"/>
	<path class="st0" d="M377,135.1c-4.3-0.6-8.5-1.2-12.7-1.7c-6.5,12.6-4.9,23.7-2.8,38.1c0.3,2.3,0.7,4.7,1,7.1
		c2.2,1.1,4.4,2.1,6.4,3.1c13.1,6.5,23.1,11.4,37.1,9.1c0.8-4.1,1.5-8.3,2.3-12.6c2.2-12.9,4.5-26.7,10.1-40.3
		C403.8,139,390,137,377,135.1L377,135.1z"/>
	<path class="st0" d="M375.4,294.8c-3-4.2-5.4-8.5-7.7-12.6c-2.9,2.5-6.1,4.8-9.7,7c1.6,3.8,2.9,7.6,3.7,11.3
		C366,298.4,370.5,296.4,375.4,294.8z"/>
	<path class="st0" d="M256,381.5c3.1-4.1,6.4-7.8,9.6-11.2c-3.2-2-6.5-4.3-9.6-7c-3.2,2.8-6.4,5.1-9.6,7
		C249.6,373.7,252.9,377.4,256,381.5L256,381.5z"/>
	<path class="st0" d="M331,169.2c-0.6-4.7-1.1-9.6-1.2-14.7c-4.9,1.5-9.7,2.6-14.4,3.4c1.5,3.5,2.7,7.3,3.6,11.3
		C323.2,168.9,327.2,168.9,331,169.2z"/>
	<path class="st0" d="M193,169.2c0.9-4.1,2.2-7.8,3.6-11.3c-4.6-0.9-9.5-1.9-14.4-3.4c-0.1,5.1-0.6,10.1-1.2,14.7
		C184.8,168.9,188.8,168.9,193,169.2L193,169.2z"/>
	<path class="st0" d="M144.3,282.2c-2.2,4.1-4.7,8.4-7.7,12.6c4.9,1.7,9.4,3.6,13.6,5.7c0.9-3.7,2.1-7.5,3.7-11.3
		C150.4,287,147.2,284.7,144.3,282.2z"/>
	<path class="st0" d="M180.1,336.2c1,6.6,2,13.7,2.1,21.4c7.3-2.3,14.4-3.5,21-4.6c6.2-1.1,11.8-2,17-3.6c-16.5-6.4-31-17-41.9-30.5
		C178.4,324.2,179.2,329.9,180.1,336.2z"/>
	<path class="st0" d="M364.5,235.7c3.1-5.9,6.4-12.3,10.8-18.5c-7.2-2.5-13.7-5.7-19.7-8.6c-5.7-2.8-10.8-5.3-15.9-7.1
		c9.4,14.3,15.1,31.2,16.1,49.3C358.9,246.4,361.6,241.3,364.5,235.7z"/>
	<path class="st0" d="M136.6,217.2c4.4,6.2,7.8,12.6,10.8,18.5c2.9,5.6,5.6,10.6,8.7,15.1c0.9-18.1,6.7-35,16.1-49.3
		c-5.1,1.8-10.2,4.3-15.9,7.1C150.3,211.5,143.9,214.8,136.6,217.2L136.6,217.2z"/>
	<path class="st0" d="M281.9,159.4c-3.3-4.3-7.2-8.4-11.6-12.9c-4.6-4.8-9.7-9.9-14.3-16c-4.6,6.1-9.6,11.3-14.3,16
		c-4.4,4.5-8.4,8.6-11.6,12.9c8.3-2.2,17-3.4,25.9-3.4S273.6,157.2,281.9,159.4L281.9,159.4z"/>
	<path class="st0" d="M329.8,357.5c0.1-7.6,1.2-14.8,2.1-21.4c0.9-6.3,1.7-11.9,1.8-17.4c-11,13.5-25.4,24.2-41.9,30.5
		c5.2,1.6,10.8,2.5,17,3.6C315.4,354.1,322.5,355.3,329.8,357.5L329.8,357.5z"/>
	<circle class="st0" cx="256" cy="256" r="70"/>
</g>
</svg>
