<?xml version="1.0" encoding="utf-8"?>
<!-- Generator: Adobe Illustrator 21.0.2, SVG Export Plug-In . SVG Version: 6.00 Build 0)  -->
<svg version="1.1" id="Layer_1" xmlns="http://www.w3.org/2000/svg" xmlns:xlink="http://www.w3.org/1999/xlink" x="0px" y="0px"
	 viewBox="0 0 500 500" style="enable-background:new 0 0 500 500;" xml:space="preserve">
<style type="text/css">
	.st0{fill:url(#SVGID_1_);}
	.st1{fill:url(#SVGID_2_);}
	.st2{fill:url(#SVGID_3_);}
	.st3{fill:#F9C3AD;}
	.st4{fill:url(#SVGID_4_);}
	.st5{fill:#AEBEDE;}
	.st6{fill:url(#SVGID_5_);}
	.st7{fill:#7B2B1A;}
	.st8{fill:#FFFFFF;}
	.st9{fill:#553039;}
	.st10{opacity:0.35;fill:#FFFFFF;}
	.st11{fill:#792F39;}
	.st12{fill:#8F3740;}
	.st13{fill:#302521;}
	.st14{fill:#F39A8B;}
	.st15{fill:#C95B59;}
	.st16{fill:url(#SVGID_6_);}
	.st17{fill:url(#SVGID_7_);}
	.st18{fill:url(#SVGID_8_);}
	.st19{fill:#97A3CC;}
	.st20{fill:url(#XMLID_2_);}
	.st21{fill:url(#SVGID_9_);}
	.st22{fill:url(#SVGID_10_);}
	.st23{fill:url(#SVGID_11_);}
	.st24{fill:url(#SVGID_12_);}
	.st25{fill:#A5A3D1;}
	.st26{fill:#DEDEF1;}
	.st27{fill:#8A87BF;}
	.st28{fill:none;stroke:#8A87BF;stroke-width:0.9921;stroke-miterlimit:10;}
	.st29{fill:none;stroke:#8A87BF;stroke-width:0.9921;stroke-miterlimit:10;stroke-dasharray:2.8424,5.6847;}
	.st30{fill:#D6DEF2;}
	.st31{fill:none;stroke:#E8F2F4;stroke-width:0.3024;stroke-miterlimit:10;}
	.st32{fill:#8688C2;}
	.st33{fill:#E8F2F4;}
</style>
<g>
	<linearGradient id="SVGID_1_" gradientUnits="userSpaceOnUse" x1="188.5343" y1="393.7396" x2="237.8797" y2="550.674">
		<stop  offset="0" style="stop-color:#272438"/>
		<stop  offset="1" style="stop-color:#324260"/>
	</linearGradient>
	<path class="st0" d="M170.4,499.8h49.3c1.9-16.5,3.4-30.3,4-38.5c2.8-38.6,1.2-89.9,4.9-95.2c3.7-5.3-10.1-35.5-10.1-35.5
		l-32.6,7.5l-15.3,53.3c0,0-1.5,85.1-0.6,100.8C170.1,493.4,170.2,496.1,170.4,499.8z"/>
	<linearGradient id="SVGID_2_" gradientUnits="userSpaceOnUse" x1="156.4957" y1="346.7749" x2="148.3996" y2="534.606">
		<stop  offset="0" style="stop-color:#272438"/>
		<stop  offset="1" style="stop-color:#324260"/>
	</linearGradient>
	<path class="st1" d="M165.5,499.8c2.5-13.9,4.8-25.1,6.6-31.6c9.2-33.5,27-137.3,27-137.3l-79.1,7.1c0,0-6.9,41-8.8,86
		c1.2,0.9,1.8,2.7,0.4,4.1c-0.2,0.2-0.4,0.4-0.6,0.6c-0.2,5.2-0.3,10.5-0.3,15.7c-0.1,13,0.2,32.9,0.7,55.5H165.5z"/>
	<linearGradient id="SVGID_3_" gradientUnits="userSpaceOnUse" x1="209.8149" y1="233.8017" x2="251.5006" y2="233.8017">
		<stop  offset="0" style="stop-color:#7E72B3"/>
		<stop  offset="0.1074" style="stop-color:#7467AC"/>
		<stop  offset="0.5099" style="stop-color:#554495"/>
		<stop  offset="0.8206" style="stop-color:#44328A"/>
		<stop  offset="1" style="stop-color:#3E2C86"/>
	</linearGradient>
	<path class="st2" d="M251.4,239.4c0,0,0.9,9.6-4.4,15c-5.2,5.4-10.9,16-10.9,16s-6.8-6.4-10.6-11.4c-3.7-5-15.6-25.3-15.8-35.7
		c-0.2-10.4,18.3-26,18.3-26s10.2,16.8,11.1,26.3C240.1,233.2,251.4,239.4,251.4,239.4z"/>
	<path class="st3" d="M259.7,232.8c-1.7,4.8-1.7,9.8-1.7,16.4c0,6.6,0.7,18-3.5,20.8c-4.1,2.8-10,8.2-15,3.8c-5-4.4-7.6-11.4-8.3-18
		c-0.7-6.6,7.4-16.2,11.1-22L259.7,232.8z"/>
	<linearGradient id="SVGID_4_" gradientUnits="userSpaceOnUse" x1="263.832" y1="236.5553" x2="240.136" y2="268.3578">
		<stop  offset="0" style="stop-color:#7E72B3"/>
		<stop  offset="0.1074" style="stop-color:#7467AC"/>
		<stop  offset="0.5099" style="stop-color:#554495"/>
		<stop  offset="0.8206" style="stop-color:#44328A"/>
		<stop  offset="1" style="stop-color:#3E2C86"/>
	</linearGradient>
	<path class="st4" d="M225.6,259c0,0,3.9,7.1,13.8,14.8c9.9,7.7,17.4,3.8,20.3,0c2.9-3.8,0-31.5,0-31.5s-10.5,1.6-17.4-8.4
		L225.6,259z"/>
	<polygon class="st5" points="248.4,243.6 259.7,242.2 259.7,232.8 248.4,233.8 	"/>
	<g>
		<path class="st3" d="M146.9,152.6c-1.8,5.1-18.7,11-18.7,11s51,58.4,70.7,58c19.7-0.4-8.6-55.1-8.6-55.1s-5.7-2.9-7.5-8.4
			c-1.8-5.5,2-29.5,2-29.5L164,116C164,116,148.7,147.5,146.9,152.6z"/>
		<linearGradient id="SVGID_5_" gradientUnits="userSpaceOnUse" x1="153.1954" y1="161.9377" x2="176.2331" y2="167.6971">
			<stop  offset="0" style="stop-color:#FFFFFF;stop-opacity:0"/>
			<stop  offset="1" style="stop-color:#E1BAD1"/>
		</linearGradient>
		<path class="st6" d="M146.9,152.6c-1.8,5.1-18.7,11-18.7,11s51,58.4,70.7,58c19.7-0.4-8.6-55.1-8.6-55.1s-5.7-2.9-7.5-8.4
			c-1.8-5.5,2-29.5,2-29.5L164,116C164,116,148.7,147.5,146.9,152.6z"/>
		<path class="st3" d="M210.4,83.8c3.1,3,8.3,9,7.8,12.4c-0.5,3.4-0.3,14-3.1,19.2c-3.8,7.2-3.4,18.3-5.9,24.8
			c-2.5,6.5-15,16.4-17,17.2c-2,0.8-8.7-0.5-11.9-3c-3.2-2.5-20.2-24.2-16.3-38.4c0,0-7.5,1.4-10-12.8c-0.7-3.7,14.2-13.9,16.6-17.5
			c5.7-8.8,25.9-1.3,31.7-0.7C208.2,85.5,210.4,83.8,210.4,83.8z"/>
		<path class="st7" d="M217.6,101.8c0,0,2.6-8.8-4.9-9.7l-23.3-4.7c-6.6-2-9.2-3.3-9.2-3.3s-1.9,8.9-4.3,10.9
			c-2.3,2-7.1,3.9-7.9,6.8c-0.9,2.8-1.3,5.8-1.3,5.8s-3-6-6.6-5.8c-3.5,0.2-4.7,5.5-1.9,8.7c2.8,3.2,5.8,5.6,5.8,5.6s-0.9,4.1-2.3,7
			c-1.5,2.9-4.1,7.9-4.1,7.9s-3.2-19.9-7.5-28.8c-4.3-8.8-4.3-33.3,21.6-33c0,0,16.9-13,33.7-9.4c14.5,3.1,29.9,15,17.4,34.6
			C218.3,101.2,217.6,101.8,217.6,101.8z"/>
		<g>
			<g>
				<path class="st8" d="M190.5,112.2c0,0,0.5,2,2.7,3.9c2.2,2,3.9,1.9,6.5-0.6C199.7,115.5,196.4,111.1,190.5,112.2z"/>
				<path class="st9" d="M194.5,112.6c-0.8-0.3-1.2,2-1.1,2.5c0.2,0.8,0.5,1.8,2.3,2.1c2.6,0.4,3.2-2.9,3.2-2.9L194.5,112.6z"/>
				<path class="st10" d="M197.8,114.7c-1.1-0.1-1.9,1.1-1.2,1.7c0.7,0.6,1.7,0.9,2-0.1C198.9,115.4,199,114.8,197.8,114.7z"/>
				<path class="st11" d="M188.2,112.3c0,0,7.5-0.3,12.6,4c0,0,0.6-1.1-0.8-2.3c-0.8-0.7-2.5-1.6-4.4-2
					C189.4,110.6,188.2,112.3,188.2,112.3z"/>
			</g>
			<path class="st12" d="M203.1,107.1c0,0,1.5-1.5,1.2-3.7c0,0-7.6-4-17.8-0.7c0,0-1.2,0.7,0.7,0.7C189,103.5,199.2,103,203.1,107.1
				z"/>
			<g>
				<path class="st8" d="M213.1,118.4c0,0-0.1,3.4-1.9,3.8c-2.5,0.5-2.6-2.1-2.6-3.9C208.6,118.2,210.8,116.9,213.1,118.4z"/>
				<path class="st9" d="M213.1,118.8c0.6,0.2-0.1,1.9-0.4,2.1c-0.5,0.4-1.1,0.9-2.3,0.2c-1.8-1-0.7-3.4-0.7-3.4L213.1,118.8z"/>
				<path class="st10" d="M213,119.8c0.8,0.6,0.8,1.8,0,1.9c-0.8,0.1-1.6-0.3-1.4-1.1C211.9,119.6,212.2,119.2,213,119.8z"/>
				<path class="st11" d="M213.9,119.2c0.8,0,0.7-0.7-0.7-1.4c-1.5-0.7-3.2-1-4.1-1c-1.6,0.1-1.8,1.2-1.8,1.2c2.2-0.1,4.3,0.4,6,1.2
					C213.5,119.2,213.7,119.2,213.9,119.2z"/>
			</g>
			<path class="st12" d="M217.5,109.8c-3.7-4-6.3-4.3-6.3-4.3c-1,1.1-1.1,3.3-1.1,3.3c3.5,0.6,5.8,1.8,7.4,2.8
				C217.7,110.7,217.7,110.1,217.5,109.8z"/>
		</g>
		<path class="st13" d="M181.6,108.3c-0.1,0.7,1.2,1.5,1.4,1.7c0.4,0.5,0.1,0.5,0.7,5.7c0.4,3.8,3,6.3,9.4,7.1
			c4.9,0.6,6.1-3.6,7.2-5.3c1.1-1.7,1.7-1.9,2.4-1.6c0.7,0.2,1,0.6,1.1,2.7c0.1,2.1-1.4,6.6,3.3,8.1c3.3,1.1,4.5,0.5,6.1-1.8
			c1.4-2.1,2.5-4.4,3.2-6.1c0.7-1.8,1.1-2.9,0.3-3.4c-0.9-0.6-2.4-1-3.8-1.4c-2.9-0.8-4.8-1.7-6.7-1.3c-1.9,0.4-2.1,1.2-2.9,0.9
			c-0.8-0.2-0.6-1-2.1-2.4c-1.5-1.4-9.1-3.6-11.9-4.5c-2.9-0.8-6.9-1.6-7.4-0.5C181.9,106.6,181.7,107.5,181.6,108.3z M206.3,115.6
			c0.8-1.3,0.8-1.1,4.4-0.3c3.6,0.8,3.9,1.2,4.3,2.1c0.4,0.9-0.1,3.4-1.8,6.1c-0.9,1.5-2.1,3.3-5,2.5c-3.1-0.9-3.1-2.8-2.9-5.4
			C205.5,118,206,116.1,206.3,115.6z M186.3,108.2c0.8-0.5,5.5,1,9,2.3c3.5,1.2,4.7,1.7,4.7,3.2c0,0.6-0.5,2.5-1.7,4.8
			c-1.1,2.3-2.5,4.1-8.1,2.5c-4-1.1-5.2-3.1-5.4-6.8C184.7,110.9,185.5,108.8,186.3,108.2z M165.9,106.2c0,0,1.9-1.2,2.6-1
			c0.3,0.1,0.9,0.5,0.9,0.5l12.3,3l4.2-3c0,0-10.4-2.7-15.5-3.9c-2.4-0.6-5.9,2.5-5.9,2.5S165.3,105,165.9,106.2z"/>
		<path class="st14" d="M203.9,117.1c0,0,1.1,9.4,3.2,11.4c2.7,2.5,1.6,4.4-0.5,5c-2.1,0.6-7-0.3-7-0.3s0.1-4.6,1.6-8
			C202.8,121.9,203.9,117.1,203.9,117.1z"/>
		<path class="st9" d="M202,137.3c0,0-1,3.3-3.6,4.9c-0.8,0.5-1.7,0.9-2.9,0.9c-3.4,0.2-5.2-1.7-6.1-3.9c-1.1-2.6-1-5.5-1-5.5
			s3.5,2,7.9,2.9C200.6,137.5,202,137.3,202,137.3z"/>
		<path class="st15" d="M198.3,142.2c-0.8,0.5-1.7,0.9-2.9,0.9c-3.4,0.2-5.2-1.7-6.1-3.9C190.2,138.8,195.5,143.1,198.3,142.2z"/>
	</g>
	<linearGradient id="SVGID_6_" gradientUnits="userSpaceOnUse" x1="211.4672" y1="178.8247" x2="226.0674" y2="248.1753">
		<stop  offset="0" style="stop-color:#7E72B3"/>
		<stop  offset="0.1074" style="stop-color:#7467AC"/>
		<stop  offset="0.5099" style="stop-color:#554495"/>
		<stop  offset="0.8206" style="stop-color:#44328A"/>
		<stop  offset="1" style="stop-color:#3E2C86"/>
	</linearGradient>
	<path class="st16" d="M209.3,171.9c10.6,5.2,13.8,11.8,19.1,25c5.2,13.2,10.5,16.2,10.5,16.2s-11.1,2.4-23.5,26.9
		c0,0-13.1-8.4-16.3-25.2C195.7,198.1,209.3,171.9,209.3,171.9z"/>
	<linearGradient id="SVGID_7_" gradientUnits="userSpaceOnUse" x1="161.4227" y1="157.1352" x2="161.4227" y2="352.9054">
		<stop  offset="0" style="stop-color:#7E72B3"/>
		<stop  offset="0.1074" style="stop-color:#7467AC"/>
		<stop  offset="0.5099" style="stop-color:#554495"/>
		<stop  offset="0.8206" style="stop-color:#44328A"/>
		<stop  offset="1" style="stop-color:#3E2C86"/>
	</linearGradient>
	<path class="st17" d="M137.5,157.1l-35.1,13.3c0,0-5.6,33.1-5.2,45.5c0.5,12.3,19.1,134.7,19.1,134.7s46.5,5.2,69.9,0
		c23.4-5.2,39.5-9.9,39.5-9.9s-8.1-119.5-9.9-131.8c-1.8-12.3-6.4-37-6.4-37l-18.3-8.7l-10.1,7.2L137.5,157.1z"/>
	<linearGradient id="SVGID_8_" gradientUnits="userSpaceOnUse" x1="187.4711" y1="323.994" x2="187.4711" y2="185.5836">
		<stop  offset="0" style="stop-color:#272438"/>
		<stop  offset="1" style="stop-color:#324260"/>
	</linearGradient>
	<path class="st18" d="M184.8,185.6c0,0,12.3,110,14.6,122.5l-8,15.9c0,0-13.4-9.2-14.2-14.3c-0.8-5.1-1.8-123.5-1.8-123.5
		L184.8,185.6z"/>
	<g>
		<path class="st3" d="M240.8,213.1c-2.4-0.9-12.9-3.4-17-3.3c-4.1,0.1-16.4-0.9-21.3-0.2c-4.9,0.7-9.4,7.5-13.6,9.5
			c-2.2,1-6.6,3.1-11.9,5.4c1.8,4.6,3.5,9.3,5.2,14c2.6-1.8,4.9-3.1,6.6-3.6c7.1-2,6.9-3.8,10.7-3.6c3.8,0.2,3.2,0.2,6.7-0.3
			c3.4-0.6,5.8-5.6,8.3-7.2c2.5-1.6,6.1-3.2,5.6-4.5c-0.4-1.3-0.6-2.9-8.9-1.1c0,0,7.9-2.8,11.4-2.9c3.5,0,10.9,0.9,14.4,0.9
			C240.5,216.1,243.2,213.9,240.8,213.1z"/>
		<polygon class="st5" points="175,225 184.9,220.1 194,240.1 184.3,247.1 		"/>
	</g>
	<g>
		<path id="XMLID_55_" class="st19" d="M206.1,248.6l28.4,6.6c2.9,0.7,6.5-1.1,7.9-3.9l31.6-62.5c1.4-2.8,0.3-5.6-2.6-6.3l-28.2-6.7
			c-5.2-0.2-7.9,1-9.3,3.9l-31.6,62.1C200.8,244.6,201.2,246.5,206.1,248.6z"/>
		
			<linearGradient id="XMLID_2_" gradientUnits="userSpaceOnUse" x1="1159.4286" y1="467.9312" x2="1253.0033" y2="466.9461" gradientTransform="matrix(-0.7155 -0.228 -0.3981 0.8326 1303.2054 106.2376)">
			<stop  offset="0" style="stop-color:#EEF4FB"/>
			<stop  offset="0.3787" style="stop-color:#E1ECF8"/>
			<stop  offset="1" style="stop-color:#D0E1F3"/>
		</linearGradient>
		<path id="XMLID_37_" class="st20" d="M207.7,249.1l28.6,6.6c2.9,0.7,6.5-1.1,8-3.9L276,189c1.4-2.8,0.3-5.6-2.6-6.3l-28.3-6.7
			c-3-0.7-6.7,1.1-8.2,4l-31.9,62.7C203.4,245.5,204.6,248.4,207.7,249.1z"/>
	</g>
	<path class="st3" d="M253.8,238c2.9-0.7,6.7-1,7.6-2.8c1-1.7,2.4-2.2,4-3.5c1.6-1.3,0.6-2.6,2.5-4.2s0-4.4,0.2-5.8
		c0.2-1.5,0.3-4.4-0.3-7c-0.6-2.6-3.2-3.2-6.5-4.2c-3.3-1-5.7-1-5.7,0.6c0,1.6,3.5,3.8,3.5,3.8s-5.7-1.7-7.3-2.3
		c-1.6-0.6-4.1,0.7-3,2.6c1.1,1.9,5.7,4.4,7.2,5.1c1.4,0.7,2.2,2.2,2.2,2.2s-4.3,0-7.3-1.2c-3-1.2-5.7-3.8-7.8-2.6
		c-2.1,1.2-1,2.6,1.1,4.2c0,0,4.5,2.8,5.9,3.4c0,0-4.5,0.1-6.7-0.7c-2.2-0.9-3.3,0.1-2.7,1.7c0.6,1.6,6.8,2.9,7,3.5
		c0.2,0.6-1.1,2-1.9,3.8C244.9,236.3,253.8,238,253.8,238z"/>
	<linearGradient id="SVGID_9_" gradientUnits="userSpaceOnUse" x1="175.8122" y1="186.0537" x2="175.8122" y2="170.4144">
		<stop  offset="0" style="stop-color:#272438"/>
		<stop  offset="1" style="stop-color:#324260"/>
	</linearGradient>
	<polygon class="st21" points="190.2,172.9 184.8,185.6 175.5,186.1 161.4,171 181.9,170.4 	"/>
	<linearGradient id="SVGID_10_" gradientUnits="userSpaceOnUse" x1="159.1568" y1="156.6747" x2="159.1568" y2="180.7116">
		<stop  offset="0" style="stop-color:#7E72B3"/>
		<stop  offset="0.1074" style="stop-color:#7467AC"/>
		<stop  offset="0.5099" style="stop-color:#554495"/>
		<stop  offset="0.8206" style="stop-color:#44328A"/>
		<stop  offset="1" style="stop-color:#3E2C86"/>
	</linearGradient>
	<polygon class="st22" points="141.7,151 180.8,170.4 165,182.5 137.5,157.1 	"/>
	<linearGradient id="SVGID_11_" gradientUnits="userSpaceOnUse" x1="187.2264" y1="156.6747" x2="187.2264" y2="180.7117">
		<stop  offset="0" style="stop-color:#7E72B3"/>
		<stop  offset="0.1074" style="stop-color:#7467AC"/>
		<stop  offset="0.5099" style="stop-color:#554495"/>
		<stop  offset="0.8206" style="stop-color:#44328A"/>
		<stop  offset="1" style="stop-color:#3E2C86"/>
	</linearGradient>
	<polygon class="st23" points="180.8,170.4 193.6,179.9 191,163.3 186.8,158.5 	"/>
	<linearGradient id="SVGID_12_" gradientUnits="userSpaceOnUse" x1="137.8216" y1="207.4434" x2="118.8337" y2="304.2816">
		<stop  offset="0" style="stop-color:#7E72B3"/>
		<stop  offset="0.1074" style="stop-color:#7467AC"/>
		<stop  offset="0.5099" style="stop-color:#554495"/>
		<stop  offset="0.8206" style="stop-color:#44328A"/>
		<stop  offset="1" style="stop-color:#3E2C86"/>
	</linearGradient>
	<path class="st24" d="M102.4,170.4c0,0-11.2,8.4-13.6,12.4c-2.4,4-1,13.3-1.9,23.5c-1,10.2,2.8,61.3,8.1,69.8
		c5.3,8.4,15,10.7,19.9,10.7c4.9,0,69.4-39.7,69.4-39.7L175,225l-47.4,17.9c0,0,0.5-36,1-44C129.1,190.9,112.1,172.6,102.4,170.4z"
		/>
</g>
<g>
	<g>
		<polygon class="st25" points="424.2,79 422,58.4 484.2,37.2 		"/>
		<polygon class="st26" points="484.2,37.2 440,81.4 426.4,64.4 		"/>
		<polygon class="st26" points="484.2,37.2 422,58.4 409,42.3 		"/>
		<polygon class="st27" points="426.4,64.4 424.2,79 432.3,71.8 		"/>
	</g>
	<g>
		<g>
			<path class="st28" d="M419.1,70.4c-0.4,0.3-0.8,0.5-1.2,0.8"/>
			<path class="st29" d="M413.1,74.2c-11,6.5-24.1,11.4-36.8,9.9c-14.8-1.8-25.2-12.3-41.5-9c-14.7,3-27.5,15.2-31.3,29.8
				c-2.6,9.9,0.1,21.5,8.2,27.6c20.7,15.7,43.8-8.6,43.8-38.5c0-38.2-49.4-71-120-76.5C150.1,10.8,37.3,72.8,1.1,199.7"/>
			<path class="st28" d="M0.4,202.5c-0.1,0.5-0.2,0.9-0.4,1.4"/>
		</g>
	</g>
</g>
<g>
	<path class="st30" d="M408.2,224.5v-16.1l-7.9-2.3c-0.5-1.5-1.1-3-1.9-4.5l3.9-7.2L391,183.1l-7.2,3.9c-1.4-0.7-2.9-1.3-4.5-1.9
		l-2.3-7.9H361l-2.3,7.9c-1.5,0.5-3,1.1-4.5,1.9l-7.2-3.9l-11.4,11.4l3.9,7.2c-0.7,1.4-1.3,2.9-1.9,4.5l-7.9,2.3v16.1l7.9,2.3
		c0.5,1.5,1.1,3,1.9,4.5l-3.9,7.2l11.4,11.4l7.2-3.9c1.4,0.7,2.9,1.3,4.5,1.9l2.3,7.9H377l2.3-7.9c1.5-0.5,3-1.1,4.5-1.9l7.2,3.9
		l11.4-11.4l-3.9-7.2c0.7-1.4,1.3-2.9,1.9-4.5L408.2,224.5z M386.6,216.5c0,9.7-7.9,17.7-17.7,17.7c-9.7,0-17.7-7.9-17.7-17.7
		c0-9.7,7.9-17.7,17.7-17.7C378.7,198.9,386.6,206.8,386.6,216.5z"/>
	<path class="st30" d="M463.5,180.5v-9.9l-4.9-1.4c-0.3-1-0.7-1.9-1.1-2.8l2.4-4.5l-7-7l-4.5,2.4c-0.9-0.4-1.8-0.8-2.8-1.1l-1.4-4.9
		h-9.9l-1.4,4.9c-1,0.3-1.9,0.7-2.8,1.1l-4.5-2.4l-7,7l2.4,4.5c-0.4,0.9-0.8,1.8-1.1,2.8l-4.9,1.4v9.9l4.9,1.4
		c0.3,1,0.7,1.9,1.1,2.8l-2.4,4.5l7,7l4.5-2.4c0.9,0.4,1.8,0.8,2.8,1.1l1.4,4.9h9.9l1.4-4.9c1-0.3,1.9-0.7,2.8-1.1l4.5,2.4l7-7
		l-2.4-4.5c0.4-0.9,0.8-1.8,1.1-2.8L463.5,180.5z M450.2,175.6c0,6-4.9,10.9-10.9,10.9c-6,0-10.9-4.9-10.9-10.9
		c0-6,4.9-10.9,10.9-10.9C445.3,164.7,450.2,169.5,450.2,175.6z"/>
</g>
<g>
	<g>
		<line class="st31" x1="344.9" y1="300" x2="344.9" y2="322.5"/>
		<g>
			<ellipse class="st32" cx="344.9" cy="298.5" rx="11.5" ry="11.3"/>
		</g>
		<g>
			<ellipse class="st32" cx="344.9" cy="338" rx="11.5" ry="11.3"/>
		</g>
		<g>
			<polygon class="st8" points="344,302.9 338.7,296.2 343.5,298.2 354.6,288.7 			"/>
		</g>
		<g>
			<polygon class="st8" points="344,342.9 338.7,336.2 343.5,338.1 354.6,328.6 			"/>
		</g>
	</g>
	<rect x="363.3" y="302.9" class="st33" width="133" height="12.2"/>
	<rect x="363.3" y="342" class="st33" width="86.9" height="12.2"/>
	<rect x="363.3" y="291" class="st32" width="76.1" height="6.2"/>
	<rect x="363.3" y="329.7" class="st32" width="47.1" height="6.2"/>
</g>
<g>
</g>
<g>
</g>
<g>
</g>
<g>
</g>
<g>
</g>
<g>
</g>
</svg>
