<?xml version="1.0" encoding="utf-8"?>
<!-- Generator: Adobe Illustrator 24.2.1, SVG Export Plug-In . SVG Version: 6.00 Build 0)  -->
<svg version="1.1" id="Layer_1" xmlns="http://www.w3.org/2000/svg" xmlns:xlink="http://www.w3.org/1999/xlink" x="0px" y="0px"
	 viewBox="0 0 511 512" style="enable-background:new 0 0 511 512;" xml:space="preserve">
<style type="text/css">
	.st0{fill:#FFFFFF;}
</style>
<path class="st0" d="M173.3,447.9c2.6,0,5.2-1.1,7.1-2.9s2.9-4.4,2.9-7.1s-1.1-5.2-2.9-7.1c-1.9-1.9-4.4-2.9-7.1-2.9
	c-2.6,0-5.2,1.1-7.1,2.9s-2.9,4.4-2.9,7.1s1.1,5.2,2.9,7.1C168.1,446.9,170.7,447.9,173.3,447.9z"/>
<path class="st0" d="M502.5,492h-48.1l-18.3-32.7v-89.1c0-21-13.5-39.3-33.6-45.6l-76.7-23.8v-81.2c0-7.5-2.2-14.7-6.1-20.6
	c21.8-7.5,37.5-28.2,37.5-52.5c0-28.9-22.3-52.8-50.6-55.3V50.1c0-27.6-22.5-50.1-50.1-50.1c-5.5,0-10,4.5-10,10v79.8
	c0,0-0.1,0-0.1,0c-8.7-0.2-16.9,3.1-23.2,9.1s-9.8,14.1-9.9,22.8c-0.3,17.9,14,32.8,32,33.1l0.6,0c-1.7,16.4-6.6,32.5-14.3,47.4
	c-2.8,5.3-4.2,11.3-4.2,17.3v86L203.2,349L74.1,430.1c-12.3,7.7-19.6,21-19.6,35.5V492h-44c-5.5,0-10,4.5-10,10s4.5,10,10,10h492
	c5.5,0,10-4.5,10-10S508,492,502.5,492z M337.1,146.5c0,17.9-13.3,32.7-30.6,35.2v-70.3C323.8,113.8,337.1,128.6,337.1,146.5z
	 M266.5,21.7c11.7,4.1,20.1,15.3,20.1,28.4v143.2c0,4.4,2.8,8.2,7,9.5c7.3,2.3,12.3,9.1,12.3,16.8v78.6h-58.5v-78.6
	c0-2.9,0.7-5.6,2-8.1c11.3-21.8,17.3-46,17.3-70.1V21.7z M236.7,131.1c-2.3-2.4-3.6-5.6-3.5-8.9c0.1-3.4,1.4-6.5,3.8-8.8
	c2.4-2.3,5.4-3.5,8.7-3.5c0.1,0,0.3,0,0.4,0c0.1,0,0.2,0,0.3,0v25.1l-1,0C242.2,134.8,239.1,133.5,236.7,131.1z M151.8,448.5
	c-2.4-5-8.4-7-13.4-4.6l-44.3,21.8c-0.7,0.3-1.3,0.7-1.9,1.2l-17.7,14.2v-15.5c0-7.6,3.8-14.5,10.3-18.6L216,364.6
	c1.4-0.9,2.6-2.1,3.4-3.6l23.7-42.8h54l-28.9,43.4c-12.1,18.1-28.8,32.7-48.3,42.3L199.3,414c-5,2.4-7,8.4-4.6,13.4
	c2.4,5,8.4,7,13.4,4.6l20.7-10.2c22.7-11.1,42.1-28.1,56.1-49.2l7.9-11.8l81.8,30.1v92.4c0,3,0.5,5.9,1.3,8.6H92.9l11-8.8l43.3-21.3
	C152.2,459.5,154.2,453.5,151.8,448.5z M403.1,492c-4.7,0-8.6-3.9-8.6-8.6V384c0-4.2-2.6-7.9-6.5-9.4l-83.8-30.9l10.9-16.3l5-7.4
	l76.6,23.8c11.7,3.6,19.5,14.3,19.5,26.5v91.7c0,1.7,0.4,3.4,1.3,4.9l14.1,25.2H403.1z"/>
</svg>
