<svg height="366pt" viewBox="-69 0 366 366" width="366pt" xmlns="http://www.w3.org/2000/svg"><path d="m195.25 253.5625-81.175781-61.734375-79.558594 61.691406c-6.644531 5.109375-10.53125 13.019531-10.515625 21.398438v34.082031h182v-33.882812c-.050781-8.464844-4.019531-16.425782-10.75-21.554688zm0 0"/><path d="m1.519531 0h223.960938c.839843 0 1.519531.679688 1.519531 1.519531v39.960938c0 .839843-.679688 1.519531-1.519531 1.519531h-223.960938c-.839843 0-1.519531-.679688-1.519531-1.519531v-39.960938c0-.839843.679688-1.519531 1.519531-1.519531zm0 0"/><path d="m1.519531 323h223.960938c.839843 0 1.519531.679688 1.519531 1.519531v39.960938c0 .839843-.679688 1.519531-1.519531 1.519531h-223.960938c-.839843 0-1.519531-.679688-1.519531-1.519531v-39.960938c0-.839843.679688-1.519531 1.519531-1.519531zm0 0"/><path d="m23 88.304688c-.003906 8.238281 3.753906 16.027343 10.207031 21.148437l80.773438 64.582031 80.796875-64.582031c6.457031-5.121094 10.222656-12.910156 10.222656-21.148437v-31.304688h-182zm0 0"/></svg>