<?xml version="1.0" encoding="utf-8"?>
<!-- Generator: Adobe Illustrator 24.2.1, SVG Export Plug-In . SVG Version: 6.00 Build 0)  -->
<svg version="1.1" id="Layer_1" xmlns="http://www.w3.org/2000/svg" xmlns:xlink="http://www.w3.org/1999/xlink" x="0px" y="0px"
	 viewBox="0 0 512 512" style="enable-background:new 0 0 512 512;" xml:space="preserve">
<style type="text/css">
	.st0{fill:#FFFFFF;}
</style>
<g>
	<path class="st0" d="M160,298.7c-5.9,0-10.7-4.8-10.7-10.7V85.3c0-23.5,19.1-42.7,42.7-42.7s42.7,19.1,42.7,42.7v181.3
		c0,5.9-4.8,10.7-10.7,10.7s-10.7-4.8-10.7-10.7V85.3c0-11.8-9.6-21.3-21.3-21.3c-11.8,0-21.3,9.6-21.3,21.3V288
		C170.7,293.9,165.9,298.7,160,298.7z"/>
</g>
<g>
	<path class="st0" d="M288,277.3c-5.9,0-10.7-4.8-10.7-10.7V64c0-11.8-9.6-21.3-21.3-21.3c-11.8,0-21.3,9.6-21.3,21.3v21.3
		c0,5.9-4.8,10.7-10.7,10.7s-10.7-4.8-10.7-10.7V64c0-23.5,19.1-42.7,42.7-42.7s42.7,19.1,42.7,42.7v202.7
		C298.7,272.6,293.9,277.3,288,277.3z"/>
</g>
<g>
	<path class="st0" d="M352,277.3c-5.9,0-10.7-4.8-10.7-10.7v-160c0-11.8-9.6-21.3-21.3-21.3c-11.8,0-21.3,9.6-21.3,21.3
		c0,5.9-4.8,10.7-10.7,10.7s-10.7-4.8-10.7-10.7c0-23.5,19.1-42.7,42.7-42.7c23.5,0,42.7,19.1,42.7,42.7v160
		C362.7,272.6,357.9,277.3,352,277.3z"/>
</g>
<g>
	<path class="st0" d="M330.7,490.7H207.2c-33.3,0-63.7-16.8-81.3-45L28.1,289.8c0-0.1-0.1-0.1-0.1-0.2c-4.4-6.6-6.7-14.5-6.7-22.9
		c0-23.5,19.1-42.7,42.7-42.7c7.9,0,15.4,2.1,21.8,6c0.2,0.1,0.3,0.2,0.5,0.3l79.3,48.6c5,3.1,6.6,9.6,3.5,14.7
		c-3.1,5-9.7,6.6-14.7,3.5l-78.8-48.3c-0.2-0.1-0.4-0.3-0.7-0.4c-3.1-2-6.9-3-10.9-3c-11.8,0-21.3,9.6-21.3,21.3c0,4,1,7.8,2.9,10.9
		c0.1,0.1,0.2,0.3,0.3,0.4l98,156.4c13.7,21.9,37.4,35,63.3,35h123.5c41.2,0,74.7-33.5,74.7-74.7V128c0-11.8-9.6-21.3-21.3-21.3
		s-21.3,9.6-21.3,21.3c0,5.9-4.8,10.7-10.7,10.7s-10.7-4.8-10.7-10.7c0-23.5,19.1-42.7,42.7-42.7s42.7,19.1,42.7,42.7v266.7
		C426.7,447.6,383.6,490.7,330.7,490.7L330.7,490.7z"/>
</g>
</svg>
